<svg width="202" height="141" viewBox="0 0 202 141" fill="none" xmlns="http://www.w3.org/2000/svg">
<path fill-rule="evenodd" clip-rule="evenodd" d="M86.2904 34.5981C86.2904 34.5981 86.2849 34.62 86.2849 34.6309C86.274 34.6854 86.2686 34.7563 86.2686 34.8436C86.2686 34.9308 86.2686 34.9963 86.2849 35.0563C86.2849 35.0672 86.2849 35.0781 86.2904 35.089C87.9978 35.089 89.2579 35.2253 90.0707 35.4762C90.9326 35.7489 91.5218 36.2343 91.8436 36.9214C92.1545 37.5868 92.3127 38.6285 92.3127 40.0519V61.2834L92.16 61.4579C80.7918 62.9795 75.4077 73.3798 78.1242 80.546C78.7407 82.1658 81.059 85.1054 84.1466 85.1763C89.5525 85.3017 95.0457 81.5877 96.2567 74.825C96.6877 72.4363 97.0204 69.1858 97.0313 65.2973V63.1976L97.2441 63.2522C102.394 64.512 109.021 67.2552 113.838 71.4164C117.068 74.2088 119.479 77.6337 120.106 81.6749C120.532 84.4345 119.484 87.625 117.749 89.0266C116.206 90.2755 114.258 90.87 111.945 90.87C108.601 90.87 105.918 89.632 103.894 87.1614C101.886 84.7127 100.419 81.7622 99.4861 78.31C99.4588 78.2118 99.3715 78.2064 99.2351 78.2282C99.1806 78.2391 99.1369 78.25 99.1042 78.2663C99.0824 78.2773 99.0606 78.2882 99.0551 78.3045C99.0551 78.3209 99.0551 78.3372 99.0551 78.3591V78.3754L99.8243 88.1104C99.8679 88.454 99.9279 88.7103 100.015 88.8848C100.097 89.043 100.239 89.1793 100.43 89.2993C103.321 90.9518 106.627 91.7753 110.347 91.7753C113.282 91.7753 115.829 91.2626 117.984 90.2319C120.128 89.2066 121.759 87.805 122.877 86.027C123.995 84.2491 124.552 82.2421 124.552 80.0061C124.552 78.6099 123.908 76.0194 121.535 73.1889L121.481 73.1235C120.368 71.8146 118.89 70.4566 116.926 69.1422C111.247 65.341 105.29 62.6741 100.086 61.7306L99.9607 61.7088C99.5843 61.6433 99.2133 61.5833 98.8478 61.5342C98.2969 61.4633 97.7459 61.4033 97.1895 61.3652L97.0313 61.3543V40.1937C97.0313 38.7812 97.1513 37.7286 97.3859 37.0469C97.6368 36.327 98.1278 35.8143 98.8751 35.5198C99.5734 35.2417 100.664 35.0944 102.148 35.089C102.148 35.0781 102.154 35.0672 102.159 35.0563C102.17 35.0017 102.175 34.9308 102.175 34.8436C102.175 34.7563 102.175 34.6909 102.159 34.6309C102.159 34.62 102.159 34.6091 102.154 34.5981L99.0879 34.6636C97.3259 34.7563 95.8203 34.8054 94.5657 34.8054C93.5019 34.8054 91.9909 34.7563 90.0435 34.6636L86.2849 34.5981H86.2904ZM92.3073 69.0113C92.28 72.6054 92.1273 75.6922 91.3036 77.9991C90.1144 81.3204 86.7595 83.3274 83.8575 83.322C81.8882 83.322 80.1262 82.4058 79.3407 80.3824C77.8624 76.5702 78.5334 71.8909 81.4518 68.2642C84.703 64.2229 90.8835 62.7995 92.1273 62.6959L92.3127 62.6795V69.0113H92.3073ZM121.47 48.7016C118.851 47.6435 116.118 47.12 113.271 47.12C111.023 47.12 108.891 47.5181 106.872 48.3252C104.865 49.1215 103.245 50.3322 102.012 51.952C100.784 53.5663 100.173 55.5351 100.173 57.8529C100.173 58.7365 100.261 59.5709 100.441 60.3508C102.623 60.7543 104.93 61.447 107.298 62.3905C106.709 61.7797 106.174 61.1088 105.694 60.378C104.794 59.0091 104.346 57.4276 104.346 55.6278C104.346 53.4027 105.001 51.5593 106.299 50.0977C107.603 48.6307 109.507 47.8889 112.022 47.8889C115.142 47.8889 117.526 49.0015 119.179 51.2212C120.815 53.4191 121.868 55.7533 122.337 58.2293C122.364 58.3274 122.452 58.3329 122.588 58.3056C122.735 58.2783 122.828 58.2347 122.828 58.1311L122.413 49.8032V49.7923C122.413 49.3396 122.092 48.9906 121.475 48.7016H121.47Z" fill="#FBF9F5"/>
<path d="M2.4045 111.659H4.17701V122.731C4.17701 124.475 3.18179 125.541 1.51825 125.541C1.02427 125.541 0.486712 125.447 0 125.224L0.239724 124.712C0.552091 124.936 0.864459 125.044 1.24221 125.044C2.4045 125.044 2.4045 123.992 2.4045 123.027V111.666V111.659ZM17.6161 111.659H16.9695C16.9841 112.156 17.0567 115.189 17.0567 116.557V119.374C17.0567 122.371 15.4876 123.358 13.7369 123.358C11.6666 123.358 10.7585 122.025 10.7585 119.389V111.659H8.98601V119.763C8.98601 122.717 10.9837 123.956 13.41 123.956C15.1535 123.956 17.6233 123.279 17.6233 119.374V111.652L17.6161 111.659ZM134.928 121.218C134.376 122.155 133.424 123.185 131.768 123.185C129.24 123.185 127.381 120.772 127.381 117.04C127.381 113.885 128.565 112.192 130.94 111.954C131.463 112.012 133.555 113.215 134.26 113.69L134.797 112.134C133.686 111.637 132.095 111.428 131.223 111.428C127.969 111.428 125.579 114.411 125.579 117.732C125.579 121.053 128.013 123.97 131.114 123.97C133.061 123.97 134.623 122.832 135.429 121.593L134.928 121.226V121.218ZM66.7159 112.559C65.8732 111.961 64.769 111.421 63.5995 111.421C61.827 111.421 60.4395 112.675 60.4395 114.526C60.4395 115.945 61.2749 117.04 63.0256 118.236C64.7254 119.396 65.401 120.051 65.401 121.139C65.401 122.45 64.4203 123.372 62.982 123.372C61.9795 123.372 61.1441 122.919 60.4467 122.285L60.0908 122.861C61.0061 123.488 62.0449 123.963 63.1926 123.963C65.1685 123.963 66.9992 122.623 66.9992 120.491C66.9992 119.079 66.3454 118.366 64.1588 116.788C62.2846 115.434 61.7107 114.771 61.7107 113.762C61.7107 112.602 62.6333 111.99 63.6285 111.99C64.4857 111.99 65.5027 112.444 66.3744 113.121L66.7231 112.559H66.7159ZM196.45 123.963C199.559 123.963 202 121.038 202 117.71C202 114.382 199.559 111.421 196.45 111.421C193.341 111.421 190.907 114.382 190.907 117.71C190.907 121.038 193.348 123.963 196.45 123.963ZM101.527 123.963C104.636 123.963 107.077 121.038 107.077 117.71C107.077 114.382 104.636 111.421 101.527 111.421C98.4175 111.421 95.984 114.382 95.984 117.71C95.984 121.038 98.4248 123.963 101.527 123.963ZM76.3629 123.963C79.4721 123.963 81.9129 121.038 81.9129 117.71C81.9129 114.382 79.4721 111.421 76.3629 111.421C73.2538 111.421 70.8202 114.382 70.8202 117.71C70.8202 121.038 73.261 123.963 76.3629 123.963ZM33.4378 123.718H35.2103V111.659H33.4378V123.718ZM41.8936 118.409L44.2472 111.659H45.4168L49.5357 123.718H47.6687L46.4265 120.044L46.2522 119.525C45.2715 119.864 44.3271 119.576 43.4045 119.295C43.0341 119.18 42.6636 119.072 42.2931 119.028L42.2204 119.23C42.1914 119.317 41.9371 120.044 41.9371 120.044C41.3197 121.874 40.8547 123.344 40.753 123.718H40.0411L41.6756 119.036C41.4068 119.079 41.1381 119.18 40.8693 119.367L40.615 119.547L40.2591 119.05L40.5133 118.877C40.971 118.553 41.4359 118.43 41.8936 118.409ZM139.759 123.718H141.531V117.818H147.052V123.718H148.825V111.659H147.052V117.256H141.531V111.659H139.759V123.718ZM178.892 123.718H180.665V119.403L182.561 117.379L186.106 123.718H188.19L183.817 116.024L187.893 111.659H186.977C186.52 112.213 185.742 113.121 185.212 113.69L180.657 118.567V111.659H178.885V123.718H178.892ZM172.681 123.718H173.923V111.659H173.269C173.277 111.961 173.357 115.189 173.357 117.17V121.471L166.463 111.659H165.228V123.718H165.867C165.86 123.502 165.787 120.188 165.787 118.207V113.95L172.667 123.718H172.681ZM22.396 123.718H29.239V123.091C28.7451 123.106 26.5222 123.163 25.7667 123.163H24.1685V111.659H22.396V123.718ZM86.5694 123.718H93.4124V123.091C92.9184 123.106 90.6955 123.163 89.94 123.163H88.3419V111.659H86.5694V123.718ZM111.74 123.718H115.503C119.056 123.718 121.496 121.017 121.496 117.523C121.496 114.029 118.649 111.659 114.741 111.659H111.748V123.718H111.74ZM154.041 117.091V111.659H160.826V112.285C160.332 112.271 158.051 112.213 157.353 112.213H155.813V117.271C155.908 117.299 156.002 117.328 156.097 117.357C156.976 117.624 157.869 117.948 158.799 117.501L159.104 117.371V118.034L159.068 118.049C157.978 118.575 156.939 118.25 155.915 117.941C155.879 117.926 155.842 117.919 155.806 117.912V123.163H157.419C158.116 123.163 160.39 123.113 160.891 123.091V123.718H154.026V117.71C153.808 117.76 153.59 117.861 153.365 118.013L153.184 118.135V117.4C153.467 117.235 153.743 117.134 154.026 117.083L154.041 117.091ZM97.8218 117.163C97.8218 114.007 99.144 112.213 101.156 111.925C103.532 112.185 105.246 114.785 105.246 118.25C105.246 121.312 103.917 123.178 101.832 123.444C99.3982 123.192 97.8146 120.599 97.8146 117.163H97.8218ZM72.6508 117.163C72.6508 114.007 73.973 112.213 75.9852 111.925C78.3606 112.185 80.075 114.785 80.075 118.25C80.075 121.312 78.7456 123.178 76.6608 123.444C74.2272 123.192 72.6436 120.599 72.6436 117.163H72.6508ZM192.745 117.163C192.745 114.007 194.067 112.213 196.08 111.925C198.455 112.185 200.169 114.785 200.169 118.25C200.169 121.312 198.84 123.178 196.755 123.444C194.322 123.192 192.738 120.599 192.738 117.163H192.745ZM113.513 123.163V112.221H114.755C116.847 112.221 119.637 113.597 119.637 117.897C119.637 120.901 118.307 122.688 116.041 123.163H113.513ZM42.4892 118.452C42.8524 118.502 43.2157 118.603 43.5789 118.719C44.3852 118.964 45.1988 119.259 46.056 118.956L44.2036 113.489L42.4965 118.452H42.4892Z" fill="#FBF9F5"/>
<path d="M138.829 135.201C138.829 135.201 138.843 135.216 138.843 135.244C138.843 135.273 138.843 135.288 138.829 135.288C138.64 135.288 138.495 135.36 138.386 135.511C138.277 135.655 138.226 135.857 138.226 136.102V139.675C138.226 139.675 138.219 139.696 138.197 139.704C138.175 139.704 138.16 139.704 138.153 139.704L134.855 135.979V138.695C134.855 138.94 134.906 139.135 135.008 139.279C135.109 139.423 135.255 139.495 135.436 139.495C135.444 139.495 135.451 139.509 135.451 139.538C135.451 139.567 135.451 139.581 135.436 139.581C135.306 139.581 135.204 139.581 135.131 139.581H134.753H134.318C134.238 139.581 134.121 139.581 133.969 139.581C133.954 139.581 133.947 139.567 133.947 139.538C133.947 139.509 133.954 139.495 133.969 139.495C134.172 139.495 134.339 139.423 134.456 139.279C134.572 139.135 134.637 138.94 134.637 138.695V135.742C134.485 135.576 134.347 135.461 134.238 135.396C134.129 135.331 134.012 135.302 133.896 135.302C133.889 135.302 133.882 135.288 133.882 135.259C133.882 135.23 133.882 135.216 133.896 135.216H134.194C134.252 135.23 134.347 135.23 134.463 135.23H135C135.066 135.216 135.146 135.216 135.24 135.216C135.276 135.216 135.306 135.223 135.327 135.244C135.349 135.266 135.378 135.302 135.429 135.367C135.509 135.475 135.567 135.547 135.596 135.583L138.03 138.364V136.109C138.03 135.857 137.979 135.662 137.877 135.518C137.775 135.374 137.63 135.302 137.449 135.302C137.441 135.302 137.434 135.288 137.434 135.259C137.434 135.23 137.434 135.216 137.449 135.216H137.754C137.906 135.23 138.03 135.237 138.131 135.237C138.226 135.237 138.357 135.237 138.524 135.223H138.843L138.829 135.201ZM89.758 135.201C89.758 135.201 89.7725 135.216 89.7725 135.244C89.7725 135.273 89.7725 135.288 89.758 135.288C89.5691 135.288 89.4239 135.36 89.3149 135.511C89.2059 135.655 89.1551 135.857 89.1551 136.102V139.675C89.1551 139.675 89.1405 139.696 89.126 139.704C89.1042 139.704 89.0897 139.704 89.0824 139.704L85.7844 135.979V138.695C85.7844 138.94 85.8353 139.135 85.937 139.279C86.0387 139.423 86.1839 139.495 86.3656 139.495C86.3728 139.495 86.3801 139.509 86.3801 139.538C86.3801 139.567 86.3801 139.581 86.3656 139.581C86.2348 139.581 86.1331 139.581 86.0605 139.581H85.6827H85.2468C85.1669 139.581 85.0507 139.581 84.9054 139.581C84.8909 139.581 84.8836 139.567 84.8836 139.538C84.8836 139.509 84.8909 139.495 84.9054 139.495C85.1088 139.495 85.2759 139.423 85.3921 139.279C85.5084 139.135 85.5737 138.94 85.5737 138.695V135.742C85.4212 135.576 85.2832 135.461 85.1742 135.396C85.0652 135.331 84.949 135.302 84.8328 135.302C84.8255 135.302 84.8182 135.288 84.8182 135.259C84.8182 135.23 84.8182 135.216 84.8328 135.216H85.1306C85.1887 135.23 85.2832 135.23 85.3994 135.23H85.937C86.0023 135.216 86.0822 135.216 86.1767 135.216C86.213 135.216 86.2421 135.223 86.2639 135.244C86.2856 135.266 86.3147 135.302 86.3656 135.367C86.4455 135.475 86.5036 135.547 86.5326 135.583L88.9662 138.364V136.109C88.9662 135.857 88.9153 135.662 88.8136 135.518C88.7119 135.374 88.5667 135.302 88.385 135.302C88.3778 135.302 88.3705 135.288 88.3705 135.259C88.3705 135.23 88.3705 135.216 88.385 135.216H88.6901C88.8427 135.23 88.9662 135.237 89.0679 135.237C89.1623 135.237 89.2931 135.237 89.4602 135.223H89.7798L89.758 135.201ZM149.166 135.9C149.166 136.066 149.21 136.217 149.297 136.347C149.384 136.476 149.493 136.592 149.616 136.685C149.74 136.786 149.914 136.901 150.132 137.038C150.365 137.19 150.553 137.319 150.691 137.427C150.829 137.535 150.953 137.672 151.047 137.838C151.149 137.996 151.193 138.184 151.193 138.393C151.193 138.638 151.127 138.854 150.997 139.041C150.866 139.228 150.684 139.38 150.452 139.48C150.219 139.588 149.958 139.639 149.674 139.639C149.464 139.639 149.246 139.61 149.013 139.552C148.781 139.495 148.628 139.43 148.548 139.358C148.527 139.336 148.505 139.322 148.498 139.307C148.483 139.293 148.476 139.264 148.476 139.228L148.454 138.119C148.454 138.119 148.469 138.083 148.49 138.083C148.512 138.083 148.527 138.083 148.534 138.104C148.672 138.385 148.795 138.616 148.904 138.796C149.013 138.969 149.144 139.127 149.304 139.264C149.464 139.401 149.653 139.466 149.856 139.466C150.045 139.466 150.197 139.416 150.321 139.315C150.444 139.214 150.503 139.041 150.503 138.803C150.503 138.601 150.459 138.421 150.365 138.263C150.27 138.112 150.161 137.982 150.03 137.874C149.9 137.766 149.718 137.636 149.486 137.492C149.26 137.348 149.086 137.226 148.963 137.125C148.839 137.024 148.73 136.901 148.643 136.757C148.556 136.613 148.512 136.44 148.512 136.246C148.512 136.001 148.585 135.792 148.723 135.619C148.868 135.446 149.05 135.324 149.275 135.244C149.5 135.165 149.74 135.122 149.987 135.122C150.154 135.122 150.321 135.136 150.488 135.165C150.655 135.194 150.793 135.23 150.895 135.273C150.938 135.295 150.967 135.309 150.982 135.331C150.997 135.353 151.004 135.381 151.004 135.41V136.433C151.004 136.433 150.989 136.455 150.967 136.462C150.946 136.462 150.931 136.462 150.924 136.455L150.866 136.325C150.75 136.03 150.612 135.785 150.452 135.576C150.292 135.374 150.074 135.266 149.791 135.266C149.602 135.266 149.449 135.316 149.333 135.425C149.21 135.533 149.151 135.684 149.151 135.893L149.166 135.9ZM108.486 139.473C108.486 139.473 108.515 139.495 108.507 139.516C108.507 139.545 108.5 139.552 108.486 139.552H107.33C107.2 139.552 106.975 139.437 106.655 139.214C106.306 139.495 105.856 139.639 105.311 139.639C104.991 139.639 104.715 139.588 104.497 139.502C104.279 139.408 104.112 139.286 104.003 139.135C103.894 138.983 103.844 138.818 103.844 138.645C103.844 138.421 103.924 138.22 104.076 138.047C104.229 137.867 104.468 137.665 104.781 137.434C104.708 137.334 104.635 137.226 104.563 137.096C104.497 136.966 104.447 136.844 104.41 136.728C104.374 136.613 104.359 136.484 104.359 136.347C104.359 135.972 104.483 135.662 104.723 135.417C104.962 135.172 105.296 135.057 105.711 135.057C106.001 135.057 106.234 135.122 106.401 135.244C106.568 135.367 106.655 135.54 106.655 135.756C106.655 135.936 106.604 136.102 106.495 136.253C106.386 136.404 106.27 136.534 106.132 136.635C105.994 136.736 105.783 136.887 105.5 137.074C105.834 137.571 106.306 138.061 106.916 138.544C106.96 138.378 106.982 138.198 106.982 137.989C106.982 137.723 106.938 137.521 106.851 137.398C106.764 137.276 106.619 137.211 106.415 137.211C106.408 137.211 106.401 137.197 106.401 137.168C106.401 137.139 106.401 137.125 106.415 137.125H108.086C108.086 137.125 108.108 137.132 108.108 137.161C108.108 137.19 108.101 137.204 108.086 137.204C107.948 137.204 107.839 137.218 107.774 137.247C107.708 137.276 107.657 137.326 107.621 137.398C107.585 137.47 107.548 137.579 107.505 137.737C107.454 137.924 107.396 138.09 107.345 138.248C107.287 138.4 107.214 138.551 107.127 138.695C107.432 138.926 107.701 139.106 107.941 139.235C108.18 139.365 108.362 139.452 108.5 139.488L108.486 139.473ZM95.0537 139.646C94.5162 139.646 94.0512 139.545 93.659 139.351C93.2667 139.156 92.9616 138.882 92.7509 138.544C92.5403 138.205 92.4313 137.831 92.4313 137.413C92.4313 136.973 92.5475 136.577 92.7873 136.224C93.027 135.878 93.3539 135.605 93.7679 135.41C94.182 135.216 94.6542 135.122 95.1772 135.122C95.4024 135.122 95.6276 135.136 95.8528 135.172C96.078 135.208 96.2596 135.252 96.3976 135.309C96.4485 135.324 96.4776 135.345 96.4848 135.353C96.4848 135.367 96.4993 135.403 96.4993 135.468L96.5938 136.44C96.5938 136.44 96.5792 136.462 96.5574 136.469C96.5357 136.469 96.5139 136.469 96.5139 136.447C96.4557 136.296 96.354 136.131 96.216 135.943C96.078 135.763 95.9037 135.605 95.6785 135.468C95.4605 135.331 95.2063 135.266 94.9157 135.266C94.6251 135.266 94.3418 135.345 94.0948 135.511C93.8478 135.677 93.6517 135.907 93.5064 136.21C93.3611 136.512 93.2885 136.865 93.2885 137.262C93.2885 137.701 93.3757 138.09 93.5355 138.436C93.7026 138.782 93.935 139.048 94.2256 139.235C94.5234 139.43 94.8576 139.524 95.2281 139.524C95.4169 139.524 95.5695 139.502 95.6712 139.459C95.7729 139.416 95.8455 139.336 95.8964 139.214C95.94 139.091 95.969 138.911 95.969 138.674C95.969 138.436 95.9545 138.263 95.9255 138.169C95.8964 138.076 95.8383 138.011 95.7438 137.975C95.6567 137.939 95.4896 137.924 95.2644 137.924C95.2353 137.924 95.2208 137.903 95.2208 137.867C95.2208 137.852 95.2208 137.838 95.2281 137.831C95.2353 137.816 95.2426 137.816 95.2499 137.816C95.6494 137.838 95.969 137.852 96.2233 137.852C96.4775 137.852 96.71 137.845 96.9715 137.831C96.9933 137.831 97.0006 137.845 97.0006 137.881C97.0006 137.917 96.9933 137.932 96.9715 137.932C96.8843 137.932 96.8262 137.939 96.7899 137.975C96.7536 138.011 96.7318 138.083 96.7245 138.191C96.7173 138.299 96.71 138.486 96.71 138.746C96.71 138.954 96.7173 139.106 96.7318 139.192C96.7463 139.279 96.7536 139.336 96.7536 139.358C96.7536 139.387 96.7536 139.408 96.7391 139.416C96.7318 139.423 96.71 139.437 96.6737 139.444C96.0707 139.574 95.5259 139.639 95.0392 139.639L95.0537 139.646ZM75.0913 139.588C74.9387 139.588 74.7644 139.581 74.5537 139.567C74.4811 139.567 74.3866 139.56 74.2777 139.552C74.1687 139.552 74.0452 139.545 73.9072 139.545H73.3841C73.2897 139.56 73.1662 139.56 73.0064 139.56C72.9991 139.56 72.9919 139.545 72.9919 139.516C72.9919 139.488 72.9919 139.473 73.0064 139.473C73.159 139.473 73.2679 139.459 73.3406 139.437C73.4132 139.416 73.4568 139.365 73.4859 139.3C73.5149 139.235 73.5222 139.127 73.5222 138.99V135.756C73.5222 135.619 73.5076 135.511 73.4859 135.446C73.4568 135.381 73.4132 135.338 73.3478 135.309C73.2824 135.288 73.1735 135.273 73.0282 135.273C73.0137 135.273 73.0064 135.259 73.0064 135.23C73.0064 135.201 73.0064 135.187 73.0282 135.187H73.3987C73.6166 135.201 73.7837 135.208 73.9144 135.208C74.1106 135.208 74.3067 135.208 74.5029 135.187C74.7498 135.18 74.9097 135.172 74.9968 135.172C75.469 135.172 75.8904 135.266 76.2608 135.453C76.6313 135.641 76.9146 135.893 77.118 136.21C77.3214 136.534 77.4231 136.894 77.4231 137.29C77.4231 137.744 77.3214 138.14 77.1108 138.486C76.9001 138.832 76.6168 139.099 76.2681 139.286C75.9121 139.473 75.5271 139.567 75.1058 139.567L75.0913 139.588ZM67.885 139.588C67.7325 139.588 67.5581 139.581 67.3475 139.567C67.2748 139.567 67.1804 139.56 67.0714 139.552C66.9625 139.552 66.839 139.545 66.7009 139.545H66.1779C66.0835 139.56 65.96 139.56 65.8002 139.56C65.7929 139.56 65.7856 139.545 65.7856 139.516C65.7856 139.488 65.7856 139.473 65.8002 139.473C65.9527 139.473 66.0617 139.459 66.1271 139.437C66.1997 139.416 66.2433 139.365 66.2723 139.3C66.3014 139.235 66.3087 139.127 66.3087 138.99V135.756C66.3087 135.619 66.2941 135.511 66.2723 135.446C66.2506 135.381 66.1997 135.338 66.1343 135.309C66.0689 135.288 65.96 135.273 65.8147 135.273C65.8002 135.273 65.7929 135.259 65.7929 135.23C65.7929 135.201 65.8002 135.187 65.8147 135.187H66.1852C66.4031 135.201 66.5702 135.208 66.7009 135.208C66.8971 135.208 67.0932 135.208 67.2893 135.187C67.5363 135.18 67.6962 135.172 67.7833 135.172C68.2555 135.172 68.6768 135.266 69.0473 135.453C69.4178 135.641 69.7011 135.893 69.9045 136.21C70.1079 136.534 70.2096 136.894 70.2096 137.29C70.2096 137.744 70.1079 138.14 69.8973 138.486C69.6866 138.832 69.4105 139.099 69.0546 139.286C68.6986 139.473 68.3136 139.567 67.8923 139.567L67.885 139.588ZM57.2427 135.201C57.2427 135.201 57.2573 135.216 57.2573 135.244C57.2573 135.273 57.2573 135.288 57.2427 135.288C57.0684 135.288 56.9086 135.36 56.756 135.511C56.6035 135.655 56.48 135.857 56.3783 136.116L55.078 139.56C55.078 139.56 55.0489 139.588 54.9981 139.588C54.9472 139.588 54.9254 139.581 54.9181 139.56L54.0174 137.672L53.3055 139.56C53.3055 139.56 53.2764 139.588 53.2256 139.588C53.1747 139.588 53.1529 139.581 53.1456 139.56L51.3514 135.785C51.2787 135.633 51.2206 135.525 51.177 135.461C51.1334 135.396 51.0826 135.353 51.0317 135.324C50.9809 135.302 50.9082 135.288 50.8138 135.288C50.7993 135.288 50.792 135.273 50.792 135.244C50.792 135.216 50.7993 135.201 50.8138 135.201C50.8864 135.201 50.93 135.201 50.9591 135.201C51.0535 135.208 51.177 135.216 51.3223 135.216C51.6347 135.216 51.9034 135.216 52.1214 135.201C52.1795 135.201 52.2594 135.201 52.3466 135.201C52.3611 135.201 52.3684 135.216 52.3684 135.244C52.3684 135.273 52.3684 135.288 52.3466 135.288C52.2303 135.288 52.1432 135.302 52.0996 135.324C52.0487 135.345 52.0269 135.389 52.0269 135.453C52.0269 135.533 52.0778 135.684 52.1867 135.914L53.4508 138.58L53.8939 137.427L53.1093 135.785C53.0294 135.619 52.9568 135.489 52.8841 135.41C52.8115 135.331 52.7388 135.288 52.6589 135.288C52.6444 135.288 52.6371 135.273 52.6371 135.244C52.6371 135.216 52.6444 135.201 52.6589 135.201C52.7098 135.201 52.7606 135.201 52.826 135.208C52.8914 135.216 52.9786 135.216 53.0948 135.216C53.3636 135.216 53.5815 135.216 53.7631 135.201C53.8067 135.201 53.8721 135.201 53.9447 135.201C53.9593 135.201 53.9665 135.216 53.9665 135.244C53.9665 135.273 53.9593 135.288 53.9447 135.288C53.8793 135.288 53.8285 135.295 53.7994 135.309C53.7704 135.324 53.7559 135.353 53.7559 135.396C53.7559 135.475 53.8212 135.648 53.9447 135.907L54.2571 136.556L54.4314 136.087C54.5331 135.821 54.584 135.619 54.584 135.489C54.584 135.36 54.5259 135.288 54.4096 135.288C54.3951 135.288 54.3879 135.273 54.3879 135.244C54.3879 135.216 54.3951 135.201 54.4096 135.201C54.446 135.201 54.4896 135.201 54.5331 135.208C54.5767 135.216 54.6857 135.216 54.8673 135.216C54.9472 135.216 55.0416 135.216 55.1579 135.201H55.4194C55.4194 135.201 55.4339 135.208 55.4339 135.237C55.4339 135.266 55.4339 135.28 55.4194 135.28C55.107 135.28 54.8455 135.554 54.6421 136.102L54.3806 136.793L55.2232 138.558L56.1313 136.152C56.1894 136.001 56.2185 135.871 56.2185 135.749C56.2185 135.605 56.1821 135.489 56.1095 135.41C56.0369 135.324 55.9424 135.288 55.8189 135.288C55.8044 135.288 55.7971 135.273 55.7971 135.244C55.7971 135.216 55.7971 135.201 55.8189 135.201H56.1458C56.3129 135.216 56.4727 135.223 56.6107 135.223C56.7052 135.223 56.8141 135.223 56.9376 135.208H57.2427V135.201ZM125.39 135.201C125.39 135.201 125.411 135.216 125.411 135.244C125.411 135.273 125.411 135.288 125.39 135.288C125.223 135.288 125.063 135.36 124.903 135.511C124.75 135.662 124.627 135.857 124.532 136.109L123.232 139.552C123.232 139.552 123.203 139.581 123.152 139.581C123.101 139.581 123.08 139.574 123.072 139.552L121.278 135.778C121.191 135.612 121.111 135.482 121.024 135.403C120.937 135.324 120.849 135.28 120.741 135.28C120.726 135.28 120.719 135.266 120.719 135.237C120.719 135.208 120.719 135.194 120.741 135.194C120.813 135.194 120.857 135.194 120.886 135.194C120.98 135.201 121.104 135.208 121.249 135.208C121.649 135.208 121.997 135.208 122.273 135.194C122.346 135.194 122.44 135.194 122.557 135.194C122.571 135.194 122.578 135.208 122.578 135.237C122.578 135.266 122.578 135.28 122.557 135.28C122.419 135.28 122.31 135.309 122.23 135.367C122.15 135.425 122.113 135.511 122.113 135.612C122.113 135.691 122.143 135.785 122.193 135.9L123.414 138.472L124.329 136.08C124.38 135.95 124.402 135.835 124.402 135.742C124.402 135.597 124.358 135.482 124.271 135.403C124.184 135.316 124.06 135.28 123.893 135.28C123.879 135.28 123.871 135.266 123.871 135.237C123.871 135.208 123.871 135.194 123.893 135.194H124.235C124.431 135.208 124.605 135.216 124.765 135.216C124.852 135.216 124.961 135.216 125.092 135.201H125.382H125.39ZM142.722 135.36C142.163 135.36 141.764 135.72 141.517 136.44C141.517 136.455 141.495 136.462 141.473 136.455C141.451 136.455 141.437 136.44 141.437 136.433C141.458 136.246 141.48 136.008 141.502 135.713C141.524 135.417 141.538 135.194 141.538 135.05C141.538 135.028 141.553 135.014 141.575 135.014C141.596 135.014 141.611 135.028 141.611 135.05C141.611 135.151 141.742 135.201 142.011 135.201C142.41 135.216 142.882 135.223 143.427 135.223C143.703 135.223 143.994 135.223 144.306 135.208H144.786C144.96 135.208 145.091 135.187 145.178 135.165C145.258 135.144 145.316 135.093 145.338 135.028C145.338 135.007 145.359 135 145.381 135C145.403 135 145.418 135.007 145.418 135.028C145.403 135.165 145.388 135.389 145.374 135.698C145.359 136.008 145.352 136.253 145.352 136.44C145.352 136.455 145.338 136.462 145.316 136.462C145.294 136.462 145.28 136.455 145.272 136.44C145.2 136.08 145.069 135.814 144.88 135.633C144.684 135.453 144.451 135.367 144.168 135.367C144.03 135.367 143.943 135.396 143.899 135.453C143.856 135.511 143.834 135.619 143.834 135.785V139.005C143.834 139.149 143.848 139.257 143.877 139.322C143.907 139.387 143.957 139.43 144.037 139.452C144.117 139.473 144.241 139.488 144.415 139.488C144.43 139.488 144.437 139.502 144.437 139.531C144.437 139.56 144.43 139.574 144.415 139.574C144.248 139.574 144.11 139.574 144.016 139.574H143.434H142.86C142.759 139.574 142.628 139.574 142.454 139.574C142.439 139.574 142.432 139.56 142.432 139.531C142.432 139.502 142.439 139.488 142.454 139.488C142.621 139.488 142.744 139.473 142.831 139.452C142.911 139.43 142.969 139.38 142.998 139.315C143.028 139.25 143.042 139.142 143.042 139.005V135.77C143.042 135.612 143.02 135.504 142.977 135.453C142.933 135.396 142.846 135.367 142.715 135.367L142.722 135.36ZM62.9453 138.45C62.9453 138.45 62.9525 138.436 62.9743 138.436C62.9889 138.436 63.0034 138.436 63.0106 138.443C63.0252 138.45 63.0252 138.457 63.0252 138.465C62.9816 138.825 62.9525 139.156 62.9525 139.459C62.9525 139.495 62.9525 139.524 62.9307 139.538C62.9162 139.552 62.8872 139.56 62.8436 139.56H59.7344C59.7344 139.56 59.7126 139.545 59.7126 139.516C59.7126 139.488 59.7126 139.473 59.7344 139.473C59.887 139.473 59.9959 139.459 60.0613 139.437C60.1267 139.416 60.1775 139.365 60.1993 139.3C60.2211 139.235 60.2357 139.127 60.2357 138.99V135.756C60.2357 135.619 60.2211 135.511 60.1993 135.446C60.1775 135.381 60.1267 135.338 60.0613 135.309C59.9887 135.288 59.8797 135.273 59.7344 135.273C59.7199 135.273 59.7126 135.259 59.7126 135.23C59.7126 135.201 59.7126 135.187 59.7344 135.187H62.7201C62.7637 135.187 62.7927 135.208 62.7927 135.252L62.8072 136.181C62.8072 136.181 62.7927 136.195 62.7709 136.203C62.7419 136.203 62.7273 136.203 62.7273 136.188C62.6547 135.914 62.5239 135.72 62.3496 135.59C62.168 135.461 61.9355 135.396 61.6449 135.396H61.4343C61.2963 135.396 61.1873 135.425 61.1219 135.482C61.0565 135.54 61.0202 135.633 61.0202 135.763V137.19H61.6014C61.8701 137.19 62.0808 137.139 62.2261 137.053C62.3714 136.959 62.444 136.829 62.444 136.664C62.444 136.649 62.4586 136.642 62.4803 136.642C62.5021 136.642 62.5167 136.642 62.5167 136.664V137.29V137.629C62.5239 137.787 62.5312 137.91 62.5312 138.004C62.5312 138.011 62.5167 138.018 62.4876 138.018C62.4586 138.018 62.444 138.018 62.444 138.004C62.444 137.816 62.3714 137.665 62.2261 137.557C62.0808 137.449 61.8629 137.391 61.5868 137.391H61.0129V138.969C61.0129 139.106 61.0347 139.207 61.0929 139.271C61.1437 139.336 61.2236 139.372 61.3398 139.372H61.5723C61.9355 139.372 62.2334 139.3 62.4513 139.149C62.6692 138.998 62.8363 138.767 62.938 138.457L62.9453 138.45ZM81.6074 138.99C81.6074 139.135 81.6219 139.243 81.6437 139.307C81.6655 139.372 81.7164 139.416 81.7817 139.437C81.8471 139.459 81.9561 139.473 82.1086 139.473C82.1232 139.473 82.1304 139.488 82.1304 139.516C82.1304 139.545 82.1304 139.56 82.1086 139.56C81.9561 139.56 81.8326 139.56 81.7454 139.56H81.2079H80.6848C80.5904 139.56 80.4669 139.56 80.3071 139.56C80.2998 139.56 80.2926 139.545 80.2926 139.516C80.2926 139.488 80.2926 139.473 80.3071 139.473C80.4596 139.473 80.5686 139.459 80.6412 139.437C80.7139 139.416 80.7575 139.365 80.7865 139.3C80.8083 139.235 80.8229 139.127 80.8229 138.99V135.756C80.8229 135.619 80.8083 135.511 80.7865 135.446C80.7575 135.381 80.7139 135.338 80.6412 135.309C80.5686 135.288 80.4596 135.273 80.3071 135.273C80.2998 135.273 80.2926 135.259 80.2926 135.23C80.2926 135.201 80.2926 135.187 80.3071 135.187H80.6848C80.9028 135.201 81.0771 135.208 81.2079 135.208C81.3531 135.208 81.5348 135.208 81.7454 135.194H82.1014C82.1014 135.194 82.1232 135.201 82.1232 135.23C82.1232 135.259 82.1232 135.273 82.1014 135.273C81.9561 135.273 81.8471 135.288 81.7817 135.316C81.7091 135.345 81.6655 135.389 81.6437 135.461C81.6219 135.525 81.6074 135.633 81.6074 135.77V138.99ZM118.067 138.45C118.067 138.45 118.074 138.436 118.096 138.436C118.111 138.436 118.125 138.436 118.133 138.443C118.147 138.45 118.147 138.457 118.147 138.465C118.104 138.825 118.074 139.156 118.074 139.459C118.074 139.495 118.067 139.524 118.053 139.538C118.038 139.552 118.009 139.56 117.966 139.56H114.856C114.856 139.56 114.835 139.545 114.835 139.516C114.835 139.488 114.835 139.473 114.856 139.473C115.009 139.473 115.118 139.459 115.183 139.437C115.249 139.416 115.299 139.365 115.321 139.3C115.343 139.235 115.358 139.127 115.358 138.99V135.756C115.358 135.619 115.343 135.511 115.321 135.446C115.299 135.381 115.249 135.338 115.183 135.309C115.111 135.288 115.002 135.273 114.856 135.273C114.842 135.273 114.835 135.259 114.835 135.23C114.835 135.201 114.835 135.187 114.856 135.187H117.842C117.893 135.187 117.915 135.208 117.915 135.252L117.929 136.181C117.929 136.181 117.915 136.195 117.893 136.203C117.864 136.203 117.849 136.203 117.849 136.188C117.777 135.914 117.646 135.72 117.472 135.59C117.297 135.461 117.057 135.396 116.767 135.396H116.556C116.418 135.396 116.309 135.425 116.244 135.482C116.178 135.54 116.142 135.633 116.142 135.763V137.19H116.723C116.992 137.19 117.203 137.139 117.348 137.053C117.493 136.959 117.566 136.829 117.566 136.664C117.566 136.649 117.581 136.642 117.602 136.642C117.624 136.642 117.639 136.642 117.639 136.664V137.29V137.629C117.646 137.787 117.653 137.91 117.653 138.004C117.653 138.011 117.639 138.018 117.61 138.018C117.58 138.018 117.566 138.018 117.566 138.004C117.566 137.816 117.493 137.665 117.348 137.557C117.203 137.449 116.985 137.391 116.709 137.391H116.135V138.969C116.135 139.106 116.164 139.207 116.215 139.271C116.266 139.336 116.346 139.372 116.462 139.372H116.694C117.057 139.372 117.355 139.3 117.573 139.149C117.791 138.998 117.958 138.767 118.06 138.457L118.067 138.45ZM131.092 138.45C131.092 138.45 131.099 138.436 131.121 138.436C131.136 138.436 131.15 138.436 131.158 138.443C131.172 138.45 131.172 138.457 131.172 138.465C131.121 138.825 131.099 139.156 131.099 139.459C131.099 139.495 131.099 139.524 131.078 139.538C131.063 139.552 131.034 139.56 130.991 139.56H127.881C127.881 139.56 127.86 139.545 127.86 139.516C127.86 139.488 127.867 139.473 127.881 139.473C128.034 139.473 128.143 139.459 128.208 139.437C128.274 139.416 128.324 139.365 128.346 139.3C128.368 139.235 128.383 139.127 128.383 138.99V135.756C128.383 135.619 128.368 135.511 128.346 135.446C128.324 135.381 128.274 135.338 128.208 135.309C128.136 135.288 128.027 135.273 127.881 135.273C127.867 135.273 127.86 135.259 127.86 135.23C127.86 135.201 127.867 135.187 127.881 135.187H130.867C130.911 135.187 130.94 135.208 130.94 135.252L130.954 136.181C130.954 136.181 130.94 136.195 130.918 136.203C130.889 136.203 130.874 136.203 130.874 136.188C130.802 135.914 130.671 135.72 130.497 135.59C130.322 135.461 130.082 135.396 129.792 135.396H129.581C129.443 135.396 129.334 135.425 129.269 135.482C129.203 135.54 129.167 135.633 129.167 135.763V137.19H129.748C130.024 137.19 130.228 137.139 130.373 137.053C130.518 136.959 130.591 136.829 130.591 136.664C130.591 136.649 130.606 136.642 130.627 136.642C130.649 136.642 130.664 136.642 130.664 136.664V137.29V137.629C130.671 137.787 130.678 137.91 130.678 138.004C130.678 138.011 130.664 138.018 130.635 138.018C130.605 138.018 130.591 138.018 130.591 138.004C130.591 137.816 130.518 137.665 130.366 137.557C130.22 137.449 130.003 137.391 129.727 137.391H129.153V138.969C129.153 139.106 129.182 139.207 129.233 139.271C129.283 139.336 129.363 139.372 129.48 139.372H129.712C130.075 139.372 130.373 139.3 130.591 139.149C130.809 138.998 130.976 138.767 131.078 138.457L131.092 138.45ZM67.8124 139.43C68.1102 139.43 68.379 139.351 68.6042 139.207C68.8367 139.055 69.011 138.832 69.1418 138.537C69.2725 138.241 69.3379 137.881 69.3379 137.47C69.3379 137.06 69.2798 136.714 69.1563 136.39C69.0328 136.066 68.8585 135.814 68.6333 135.626C68.4081 135.439 68.1465 135.345 67.8487 135.345C67.5509 135.345 67.362 135.374 67.253 135.432C67.1441 135.489 67.0932 135.605 67.0932 135.785V138.926C67.0932 139.113 67.1441 139.243 67.2385 139.322C67.3402 139.401 67.5291 139.437 67.8124 139.437V139.43ZM75.0259 139.43C75.3237 139.43 75.5925 139.351 75.8177 139.207C76.0502 139.055 76.2245 138.832 76.3553 138.537C76.486 138.241 76.5514 137.881 76.5514 137.47C76.5514 137.06 76.4933 136.714 76.3698 136.39C76.2463 136.066 76.072 135.814 75.8468 135.626C75.6216 135.439 75.3601 135.345 75.0695 135.345C74.7789 135.345 74.5755 135.374 74.4738 135.432C74.3648 135.489 74.314 135.605 74.314 135.785V138.926C74.314 139.113 74.3648 139.243 74.4593 139.322C74.561 139.401 74.7498 139.437 75.0259 139.437V139.43ZM105.856 139.3C106.132 139.3 106.35 139.243 106.531 139.12C106.459 139.07 106.357 138.99 106.226 138.89C105.987 138.695 105.747 138.486 105.507 138.248C105.267 138.011 105.057 137.78 104.868 137.557C104.657 137.773 104.548 138.004 104.548 138.248C104.548 138.429 104.599 138.601 104.708 138.76C104.817 138.918 104.962 139.048 105.166 139.149C105.362 139.25 105.594 139.3 105.856 139.3ZM105.02 135.742C105.02 136.102 105.151 136.498 105.405 136.923C105.74 136.599 105.907 136.26 105.907 135.9C105.907 135.698 105.856 135.533 105.761 135.417C105.667 135.302 105.543 135.244 105.384 135.244C105.253 135.244 105.158 135.288 105.1 135.367C105.042 135.453 105.013 135.576 105.013 135.742H105.02Z" fill="#FBF9F5"/>
</svg>
