<svg width="141" height="38" viewBox="0 0 141 38" fill="none" xmlns="http://www.w3.org/2000/svg">
<g clip-path="url(#clip0_194_40789)">
<path d="M104.415 32.9457C104.415 32.9457 104.425 32.9557 104.425 32.9758C104.425 32.9959 104.425 33.0059 104.415 33.0059C104.288 33.0059 104.187 33.0561 104.116 33.1565C104.045 33.2569 104.004 33.3874 104.004 33.558V35.9823C104.004 35.9823 103.999 35.9974 103.984 36.0024C103.969 36.0024 103.959 36.0024 103.954 36.0024L101.712 33.4777V35.3198C101.712 35.4854 101.748 35.6209 101.819 35.7163C101.89 35.8116 101.986 35.8618 102.113 35.8618C102.118 35.8618 102.123 35.8719 102.123 35.892C102.123 35.912 102.123 35.9221 102.113 35.9221C102.022 35.9221 101.956 35.9221 101.905 35.9221H101.647H101.352C101.297 35.9221 101.221 35.9221 101.119 35.9221C101.109 35.9221 101.104 35.912 101.104 35.892C101.104 35.8719 101.104 35.8618 101.119 35.8618C101.261 35.8618 101.368 35.8116 101.449 35.7163C101.53 35.6209 101.57 35.4854 101.57 35.3198V33.3171C101.464 33.2017 101.378 33.1264 101.302 33.0812C101.226 33.0361 101.15 33.016 101.069 33.016C101.063 33.016 101.058 33.0059 101.058 32.9859C101.058 32.9658 101.058 32.9558 101.069 32.9558H101.266C101.307 32.9658 101.368 32.9658 101.449 32.9658H101.814C101.86 32.9558 101.91 32.9558 101.976 32.9558C102.001 32.9558 102.022 32.9608 102.032 32.9758C102.042 32.9859 102.067 33.016 102.098 33.0561C102.154 33.1264 102.189 33.1766 102.214 33.2017L103.868 35.0889V33.558C103.868 33.3874 103.832 33.2519 103.761 33.1565C103.69 33.0612 103.594 33.011 103.472 33.011C103.467 33.011 103.462 33.0009 103.462 32.9808C103.462 32.9608 103.462 32.9507 103.472 32.9507H103.68C103.781 32.9608 103.868 32.9658 103.938 32.9658C103.999 32.9658 104.091 32.9658 104.207 32.9558H104.42L104.415 32.9457ZM71.0806 32.9457C71.0806 32.9457 71.0907 32.9557 71.0907 32.9758C71.0907 32.9959 71.0907 33.0059 71.0806 33.0059C70.9538 33.0059 70.8524 33.0561 70.7814 33.1565C70.7104 33.2569 70.6699 33.3874 70.6699 33.558V35.9823C70.6699 35.9823 70.6597 35.9974 70.6496 36.0024C70.6344 36.0024 70.6242 36.0024 70.6192 36.0024L68.3779 33.4777V35.3198C68.3779 35.4854 68.4134 35.6209 68.4844 35.7163C68.5554 35.8116 68.6517 35.8618 68.7785 35.8618C68.7836 35.8618 68.7886 35.8719 68.7886 35.892C68.7886 35.912 68.7886 35.9221 68.7785 35.9221C68.6872 35.9221 68.6213 35.9221 68.5757 35.9221H68.3171H68.0179C67.9621 35.9221 67.8861 35.9221 67.7846 35.9221C67.7745 35.9221 67.7694 35.912 67.7694 35.892C67.7694 35.8719 67.7694 35.8618 67.7846 35.8618C67.9266 35.8618 68.0331 35.8116 68.1142 35.7163C68.1954 35.6209 68.2359 35.4854 68.2359 35.3198V33.3171C68.1295 33.2017 68.0382 33.1264 67.9672 33.0812C67.8911 33.0361 67.8151 33.016 67.7339 33.016C67.7289 33.016 67.7238 33.0059 67.7238 32.9859C67.7238 32.9658 67.7238 32.9558 67.7339 32.9558H67.9368C67.9773 32.9658 68.0382 32.9658 68.1193 32.9658H68.4844C68.53 32.9558 68.5807 32.9558 68.6467 32.9558C68.672 32.9558 68.6923 32.9608 68.7024 32.9758C68.7126 32.9909 68.7379 33.016 68.7684 33.0561C68.8241 33.1264 68.8596 33.1766 68.885 33.2017L70.538 35.0889V33.558C70.538 33.3874 70.5025 33.2519 70.4315 33.1565C70.3605 33.0612 70.2642 33.011 70.1374 33.011C70.1324 33.011 70.1273 33.0009 70.1273 32.9808C70.1273 32.9608 70.1273 32.9507 70.1374 32.9507H70.3453C70.4467 32.9608 70.533 32.9658 70.6039 32.9658C70.6699 32.9658 70.7561 32.9658 70.8727 32.9558H71.0857L71.0806 32.9457ZM111.438 33.4225C111.438 33.538 111.468 33.6384 111.524 33.7237C111.585 33.814 111.656 33.8893 111.742 33.9546C111.828 34.0198 111.945 34.1001 112.092 34.1955C112.249 34.2959 112.381 34.3862 112.472 34.4615C112.569 34.5368 112.65 34.6271 112.716 34.7375C112.782 34.848 112.817 34.9734 112.817 35.114C112.817 35.2796 112.772 35.4252 112.685 35.5507C112.599 35.6812 112.472 35.7765 112.315 35.8468C112.158 35.917 111.981 35.9522 111.788 35.9522C111.646 35.9522 111.494 35.9321 111.337 35.892C111.179 35.8518 111.073 35.8116 111.022 35.7615C111.007 35.7514 110.997 35.7364 110.987 35.7263C110.977 35.7163 110.977 35.6962 110.977 35.6711L110.961 34.9182C110.961 34.9182 110.972 34.8931 110.987 34.8931C111.002 34.8931 111.012 34.8931 111.017 34.9082C111.113 35.0989 111.195 35.2545 111.266 35.375C111.337 35.4954 111.428 35.6008 111.539 35.6912C111.651 35.7815 111.773 35.8267 111.915 35.8267C112.041 35.8267 112.148 35.7916 112.229 35.7263C112.31 35.6561 112.356 35.5406 112.356 35.38C112.356 35.2395 112.325 35.119 112.265 35.0136C112.204 34.9082 112.128 34.8229 112.036 34.7476C111.945 34.6773 111.823 34.587 111.666 34.4866C111.514 34.3862 111.392 34.3059 111.311 34.2356C111.225 34.1654 111.154 34.0851 111.093 33.9847C111.032 33.8893 111.002 33.7739 111.002 33.6384C111.002 33.4727 111.053 33.3322 111.149 33.2167C111.245 33.1013 111.372 33.016 111.524 32.9608C111.676 32.9056 111.839 32.8754 112.006 32.8754C112.117 32.8754 112.229 32.8855 112.346 32.9056C112.462 32.9256 112.554 32.9507 112.625 32.9808C112.655 32.9959 112.67 33.0059 112.68 33.021C112.69 33.0361 112.696 33.0511 112.696 33.0762V33.7739C112.696 33.7739 112.685 33.7889 112.67 33.7939C112.655 33.7939 112.645 33.7939 112.64 33.7889L112.604 33.6986C112.523 33.4978 112.432 33.3322 112.325 33.1916C112.219 33.0511 112.072 32.9808 111.879 32.9808C111.752 32.9808 111.646 33.016 111.565 33.0913C111.484 33.1615 111.443 33.2669 111.443 33.4075L111.438 33.4225ZM83.8029 35.8468C83.8029 35.8468 83.8232 35.8618 83.8181 35.8769C83.8181 35.897 83.813 35.902 83.8029 35.902H83.0169C82.9257 35.902 82.7735 35.8267 82.5555 35.6711C82.3172 35.8618 82.0129 35.9622 81.6428 35.9622C81.4247 35.9622 81.2371 35.9321 81.0901 35.8669C80.938 35.8016 80.8264 35.7213 80.7554 35.6159C80.6844 35.5105 80.6439 35.4001 80.6439 35.2846C80.6439 35.1341 80.6946 34.9985 80.801 34.8781C80.9075 34.7576 81.0647 34.6171 81.2777 34.4615C81.227 34.3962 81.1763 34.321 81.1306 34.2356C81.085 34.1453 81.0495 34.065 81.0292 33.9847C81.0039 33.9044 80.9937 33.819 80.9937 33.7237C80.9937 33.4677 81.0749 33.2569 81.2422 33.0963C81.4045 32.9307 81.6326 32.8503 81.9115 32.8503C82.1093 32.8503 82.2665 32.8905 82.378 32.9758C82.4947 33.0612 82.5504 33.1766 82.5504 33.3221C82.5504 33.4426 82.5149 33.558 82.4439 33.6584C82.373 33.7588 82.2918 33.8492 82.2006 33.9144C82.1093 33.9847 81.9673 34.0851 81.7695 34.2105C81.9977 34.5468 82.3172 34.8781 82.7279 35.2043C82.7583 35.0939 82.7735 34.9684 82.7735 34.8329C82.7735 34.6522 82.7431 34.5167 82.6823 34.4314C82.6214 34.3461 82.5251 34.3059 82.3831 34.3059C82.378 34.3059 82.373 34.2959 82.373 34.2758C82.373 34.2557 82.373 34.2457 82.3831 34.2457H83.5189C83.5189 34.2457 83.5341 34.2457 83.5341 34.2708C83.5341 34.2959 83.5341 34.3009 83.5189 34.3009C83.4226 34.3009 83.3516 34.3109 83.306 34.331C83.2603 34.3511 83.2248 34.3862 83.1995 34.4314C83.1741 34.4766 83.1488 34.5518 83.1183 34.6572C83.0828 34.7827 83.0474 34.8982 83.0068 35.0036C82.9662 35.109 82.9206 35.2093 82.8597 35.3047C83.0676 35.4603 83.2502 35.5808 83.4124 35.6711C83.5747 35.7564 83.7015 35.8167 83.7927 35.8418L83.8029 35.8468ZM74.6808 35.9572C74.3157 35.9572 74.0013 35.892 73.7325 35.7564C73.4638 35.6209 73.261 35.4402 73.1139 35.2094C72.9719 34.9785 72.901 34.7225 72.901 34.4414C72.901 34.1403 72.9821 33.8743 73.1443 33.6384C73.3066 33.4025 73.5297 33.2167 73.8086 33.0862C74.0926 32.9557 74.412 32.8905 74.767 32.8905C74.9191 32.8905 75.0712 32.9005 75.2233 32.9256C75.3754 32.9507 75.4971 32.9808 75.5935 33.016C75.629 33.026 75.6493 33.0411 75.6543 33.0461C75.6543 33.0561 75.6645 33.0812 75.6645 33.1264L75.7253 33.7839C75.7253 33.7839 75.7152 33.799 75.7 33.804C75.6847 33.804 75.6695 33.804 75.6695 33.7889C75.629 33.6835 75.5631 33.5731 75.4667 33.4476C75.3754 33.3221 75.2537 33.2167 75.1016 33.1264C74.9495 33.0361 74.7771 32.9909 74.5793 32.9909C74.3816 32.9909 74.1889 33.0461 74.0216 33.1565C73.8542 33.2669 73.7224 33.4276 73.621 33.6283C73.5246 33.8341 73.4739 34.07 73.4739 34.341C73.4739 34.6372 73.5297 34.9032 73.6413 35.1341C73.7528 35.3649 73.91 35.5507 74.1128 35.6761C74.3157 35.8066 74.5388 35.8719 74.7923 35.8719C74.9241 35.8719 75.0256 35.8568 75.0915 35.8267C75.1625 35.7966 75.2132 35.7414 75.2436 35.6611C75.274 35.5808 75.2892 35.4603 75.2892 35.2947C75.2892 35.129 75.2791 35.0186 75.2588 34.9534C75.2385 34.8881 75.198 34.848 75.1371 34.8229C75.0763 34.8028 74.9647 34.7877 74.8126 34.7877C74.7923 34.7877 74.7822 34.7727 74.7822 34.7476C74.7822 34.7376 74.7822 34.7275 74.7872 34.7225C74.7872 34.7125 74.7974 34.7125 74.8025 34.7125C75.0712 34.7275 75.2943 34.7375 75.4616 34.7375C75.629 34.7375 75.7912 34.7325 75.9687 34.7225C75.9839 34.7225 75.989 34.7325 75.989 34.7576C75.989 34.7777 75.9839 34.7928 75.9687 34.7928C75.9129 34.7928 75.8724 34.7978 75.847 34.8229C75.8217 34.848 75.8064 34.8931 75.8014 34.9684C75.7963 35.0387 75.7912 35.1692 75.7912 35.3449C75.7912 35.4854 75.7963 35.5858 75.8064 35.646C75.8166 35.7062 75.8217 35.7464 75.8217 35.7615C75.8217 35.7815 75.8217 35.7916 75.8115 35.8016C75.8064 35.8066 75.7912 35.8167 75.7709 35.8217C75.3602 35.912 74.9901 35.9522 74.6605 35.9522L74.6808 35.9572ZM56.2185 35.9221C56.117 35.9221 55.9954 35.9171 55.8534 35.907C55.8027 35.907 55.7418 35.902 55.6658 35.897C55.5897 35.897 55.5086 35.892 55.4173 35.892H55.0623C54.9964 35.902 54.9102 35.902 54.8037 35.902C54.7987 35.902 54.7936 35.892 54.7936 35.8719C54.7936 35.8518 54.7936 35.8418 54.8037 35.8418C54.9052 35.8418 54.9812 35.8317 55.0269 35.8167C55.0725 35.8016 55.108 35.7715 55.1232 35.7263C55.1384 35.6811 55.1486 35.6109 55.1486 35.5155V33.3272C55.1486 33.2318 55.1384 33.1615 55.1232 33.1214C55.108 33.0762 55.0725 33.0461 55.0269 33.031C54.9812 33.016 54.9102 33.0059 54.8088 33.0059C54.7987 33.0059 54.7936 32.9959 54.7936 32.9758C54.7936 32.9557 54.7987 32.9457 54.8088 32.9457H55.0623C55.2094 32.9557 55.326 32.9608 55.4122 32.9608C55.5441 32.9608 55.6759 32.9608 55.8128 32.9457C55.9801 32.9407 56.0917 32.9357 56.1475 32.9357C56.472 32.9357 56.756 33.0009 57.0044 33.1264C57.2529 33.2519 57.4506 33.4225 57.5875 33.6434C57.7244 33.8592 57.7954 34.1051 57.7954 34.3762C57.7954 34.6823 57.7244 34.9534 57.5825 35.1893C57.4405 35.4252 57.2478 35.6059 57.0095 35.7313C56.7712 35.8568 56.5075 35.9221 56.2185 35.9221ZM61.1167 35.9221C61.0153 35.9221 60.8936 35.9171 60.7516 35.907C60.7009 35.907 60.635 35.902 60.564 35.897C60.488 35.897 60.4068 35.892 60.3105 35.892H59.9555C59.8947 35.902 59.8085 35.902 59.6969 35.902C59.6919 35.902 59.6868 35.892 59.6868 35.8719C59.6868 35.8518 59.6868 35.8418 59.6969 35.8418C59.7984 35.8418 59.8744 35.8317 59.92 35.8167C59.9657 35.8016 60.0012 35.7715 60.0164 35.7263C60.0367 35.6811 60.0417 35.6109 60.0417 35.5155V33.3272C60.0417 33.2318 60.0316 33.1615 60.0164 33.1214C60.0012 33.0762 59.9657 33.0461 59.92 33.031C59.8744 33.016 59.8034 33.0059 59.702 33.0059C59.6919 33.0059 59.6868 32.9959 59.6868 32.9758C59.6868 32.9557 59.6868 32.9457 59.702 32.9457H59.9555C60.1026 32.9557 60.2192 32.9608 60.3054 32.9608C60.4373 32.9608 60.5691 32.9608 60.706 32.9457C60.8733 32.9407 60.9849 32.9357 61.0407 32.9357C61.3601 32.9357 61.6491 33.0009 61.8976 33.1264C62.1461 33.2519 62.3438 33.4225 62.4807 33.6434C62.6176 33.8592 62.6836 34.1051 62.6836 34.3762C62.6836 34.6823 62.6126 34.9534 62.4706 35.1893C62.3286 35.4252 62.1359 35.6059 61.8976 35.7313C61.6542 35.8568 61.3956 35.9221 61.1066 35.9221H61.1167ZM48.9928 32.9457C48.9928 32.9457 49.0029 32.9557 49.0029 32.9758C49.0029 32.9959 49.0029 33.0059 48.9928 33.0059C48.8761 33.0059 48.7646 33.0561 48.6632 33.1565C48.5618 33.2569 48.4756 33.3924 48.4096 33.5681L47.5273 35.907C47.5273 35.907 47.5071 35.9271 47.4766 35.9271C47.4462 35.9271 47.4259 35.9221 47.4259 35.907L46.8124 34.6221L46.3307 35.907C46.3307 35.907 46.3104 35.9271 46.28 35.9271C46.2495 35.9271 46.2292 35.9221 46.2292 35.907L45.0123 33.3472C44.9667 33.2469 44.9261 33.1716 44.8957 33.1314C44.8652 33.0862 44.8348 33.0561 44.7942 33.0411C44.7588 33.026 44.7081 33.016 44.6472 33.016C44.6371 33.016 44.632 33.0059 44.632 32.9859C44.632 32.9658 44.632 32.9558 44.6472 32.9558C44.6928 32.9558 44.7283 32.9557 44.7486 32.9608C44.8145 32.9658 44.8957 32.9708 44.9971 32.9708C45.21 32.9708 45.3926 32.9708 45.5396 32.9608C45.5802 32.9608 45.6309 32.9558 45.6918 32.9558C45.7019 32.9558 45.707 32.9658 45.707 32.9859C45.707 33.0059 45.707 33.016 45.6918 33.016C45.6106 33.016 45.5549 33.026 45.5244 33.0411C45.4889 33.0561 45.4737 33.0862 45.4737 33.1264C45.4737 33.1816 45.5092 33.282 45.5853 33.4376L46.4473 35.2445L46.7465 34.4615L46.214 33.3523C46.1583 33.2368 46.1076 33.1515 46.0619 33.0963C46.0163 33.0411 45.9605 33.016 45.9098 33.016C45.8997 33.016 45.8946 33.0059 45.8946 32.9859C45.8946 32.9658 45.8946 32.9558 45.9098 32.9558C45.9402 32.9558 45.9808 32.9557 46.0214 32.9608C46.067 32.9658 46.1278 32.9658 46.2039 32.9658C46.3864 32.9658 46.5386 32.9658 46.6552 32.9558C46.6856 32.9558 46.7262 32.9507 46.7769 32.9507C46.787 32.9507 46.7921 32.9608 46.7921 32.9808C46.7921 33.0009 46.787 33.011 46.7769 33.011C46.7312 33.011 46.7008 33.016 46.6805 33.026C46.6603 33.0361 46.6501 33.0561 46.6501 33.0862C46.6501 33.1415 46.6907 33.2569 46.7769 33.4326L46.9898 33.8743L47.1115 33.558C47.1825 33.3774 47.218 33.2418 47.218 33.1515C47.218 33.0612 47.1775 33.016 47.1014 33.016C47.0913 33.016 47.0862 33.0059 47.0862 32.9859C47.0862 32.9658 47.0913 32.9558 47.1014 32.9558C47.1268 32.9558 47.1521 32.9557 47.1825 32.9608C47.213 32.9658 47.289 32.9658 47.4107 32.9658C47.4665 32.9658 47.5324 32.9658 47.6085 32.9558H47.7859C47.7859 32.9558 47.7961 32.9557 47.7961 32.9808C47.7961 33.0059 47.7961 33.011 47.7859 33.011C47.573 33.011 47.3955 33.1967 47.2535 33.5681L47.076 34.0349L47.649 35.2344L48.2677 33.6032C48.3032 33.5028 48.3234 33.4125 48.3234 33.3272C48.3234 33.2268 48.2981 33.1515 48.2474 33.0963C48.1967 33.0411 48.1308 33.011 48.0496 33.011C48.0395 33.011 48.0344 33.0009 48.0344 32.9808C48.0344 32.9608 48.0344 32.9507 48.0496 32.9507H48.2677C48.3843 32.9608 48.4857 32.9658 48.582 32.9658C48.648 32.9658 48.7189 32.9658 48.8001 32.9558H49.0029L48.9928 32.9457ZM95.2879 32.9457C95.2879 32.9457 95.3032 32.9557 95.3032 32.9758C95.3032 32.9959 95.3032 33.0059 95.2879 33.0059C95.1713 33.0059 95.0648 33.0561 94.9583 33.1565C94.8519 33.2569 94.7707 33.3924 94.7048 33.5631L93.8225 35.902C93.8225 35.902 93.8022 35.9221 93.7718 35.9221C93.7414 35.9221 93.7211 35.917 93.7211 35.902L92.5041 33.3422C92.4484 33.2268 92.3875 33.1415 92.3317 33.0862C92.276 33.031 92.21 33.0059 92.1391 33.0059C92.1289 33.0059 92.1238 32.9959 92.1238 32.9758C92.1238 32.9557 92.1289 32.9457 92.1391 32.9457C92.1847 32.9457 92.2202 32.9457 92.2405 32.9507C92.3013 32.9558 92.3875 32.9608 92.4889 32.9608C92.7627 32.9608 92.996 32.9608 93.1887 32.9507C93.2394 32.9507 93.3053 32.9457 93.3814 32.9457C93.3915 32.9457 93.3966 32.9557 93.3966 32.9758C93.3966 32.9959 93.3966 33.0059 93.3814 33.0059C93.285 33.0059 93.214 33.026 93.1583 33.0662C93.1076 33.1063 93.0771 33.1615 93.0771 33.2318C93.0771 33.287 93.0923 33.3523 93.1278 33.4275L93.9543 35.1742L94.573 33.553C94.6034 33.4627 94.6237 33.3874 94.6237 33.3272C94.6237 33.2268 94.5933 33.1515 94.5375 33.0963C94.4766 33.0411 94.3955 33.011 94.2839 33.011C94.2738 33.011 94.2687 33.0009 94.2687 32.9808C94.2687 32.9608 94.2687 32.9507 94.2839 32.9507H94.5172C94.649 32.9608 94.7707 32.9658 94.8772 32.9658C94.9381 32.9658 95.0141 32.9658 95.1003 32.9558H95.2981L95.2879 32.9457ZM107.062 33.0561C106.682 33.0561 106.408 33.3021 106.246 33.7889C106.246 33.799 106.23 33.804 106.215 33.799C106.2 33.799 106.19 33.7939 106.19 33.7839C106.2 33.6584 106.215 33.4928 106.23 33.292C106.246 33.0913 106.256 32.9407 106.256 32.8403C106.256 32.8253 106.266 32.8152 106.281 32.8152C106.296 32.8152 106.306 32.8202 106.306 32.8403C106.306 32.9106 106.398 32.9457 106.58 32.9457C106.854 32.9557 107.174 32.9608 107.544 32.9608C107.731 32.9608 107.929 32.9608 108.142 32.9507H108.467C108.588 32.9457 108.674 32.9357 108.73 32.9206C108.786 32.9056 108.822 32.8754 108.837 32.8253C108.837 32.8102 108.852 32.8052 108.867 32.8052C108.882 32.8052 108.893 32.8102 108.893 32.8253C108.882 32.9206 108.872 33.0712 108.862 33.277C108.852 33.4828 108.847 33.6534 108.847 33.7789C108.847 33.7889 108.837 33.7939 108.822 33.7939C108.806 33.7939 108.796 33.7939 108.791 33.7789C108.745 33.538 108.654 33.3523 108.522 33.2318C108.391 33.1113 108.228 33.0511 108.041 33.0511C107.949 33.0511 107.889 33.0712 107.858 33.1113C107.828 33.1515 107.812 33.2268 107.812 33.3372V35.5205C107.812 35.6159 107.823 35.6912 107.843 35.7313C107.863 35.7765 107.899 35.8066 107.954 35.8217C108.01 35.8367 108.096 35.8468 108.213 35.8468C108.223 35.8468 108.228 35.8568 108.228 35.8769C108.228 35.897 108.228 35.907 108.213 35.907C108.096 35.907 108.01 35.907 107.939 35.907H107.544H107.158C107.092 35.907 107.001 35.907 106.879 35.907C106.869 35.907 106.864 35.897 106.864 35.8769C106.864 35.8568 106.864 35.8468 106.879 35.8468C106.996 35.8468 107.082 35.8367 107.138 35.8217C107.194 35.8066 107.229 35.7765 107.255 35.7313C107.28 35.6862 107.285 35.6159 107.285 35.5205V33.3322C107.285 33.2268 107.27 33.1515 107.245 33.1164C107.214 33.0762 107.158 33.0612 107.067 33.0612L107.062 33.0561ZM99.1619 35.1491C99.1619 35.1491 99.167 35.1391 99.1822 35.1391C99.1924 35.1391 99.2025 35.1391 99.2076 35.1441C99.2177 35.1441 99.2177 35.1541 99.2177 35.1541C99.1873 35.4001 99.167 35.6259 99.167 35.8267C99.167 35.8518 99.167 35.8719 99.1518 35.8819C99.1416 35.892 99.1214 35.897 99.096 35.897H96.9815C96.9815 35.897 96.9663 35.8869 96.9663 35.8669C96.9663 35.8468 96.9714 35.8367 96.9815 35.8367C97.083 35.8367 97.159 35.8267 97.2046 35.8116C97.2503 35.7966 97.2807 35.7665 97.2959 35.7213C97.3111 35.6761 97.3213 35.6059 97.3213 35.5105V33.3221C97.3213 33.2268 97.3111 33.1565 97.2959 33.1164C97.2807 33.0712 97.2503 33.0411 97.1996 33.026C97.1539 33.011 97.0779 33.0009 96.9815 33.0009C96.9714 33.0009 96.9663 32.9909 96.9663 32.9708C96.9663 32.9507 96.9714 32.9407 96.9815 32.9407H99.0098C99.0402 32.9407 99.0554 32.9558 99.0554 32.9859L99.0656 33.6133C99.0656 33.6133 99.0554 33.6233 99.0402 33.6283C99.02 33.6283 99.0149 33.6283 99.0098 33.6183C98.9591 33.4376 98.8729 33.3021 98.7512 33.2117C98.6295 33.1214 98.4723 33.0812 98.2746 33.0812H98.1326C98.0362 33.0812 97.9652 33.1013 97.9247 33.1415C97.879 33.1816 97.8588 33.2469 97.8588 33.3322V34.2959H98.2543C98.4368 34.2959 98.5788 34.2657 98.6802 34.2005C98.7766 34.1353 98.8273 34.0499 98.8273 33.9345C98.8273 33.9244 98.8374 33.9194 98.8526 33.9194C98.8678 33.9194 98.878 33.9194 98.878 33.9345V34.3611V34.587C98.883 34.6924 98.8881 34.7777 98.8881 34.843C98.8881 34.848 98.878 34.853 98.8577 34.853C98.8374 34.853 98.8273 34.853 98.8273 34.843C98.8273 34.7125 98.7766 34.6121 98.6751 34.5368C98.5737 34.4615 98.4318 34.4264 98.2441 34.4264H97.8537V35.4954C97.8537 35.5858 97.8689 35.6561 97.9044 35.6962C97.9399 35.7414 97.9957 35.7615 98.0717 35.7615H98.2289C98.4774 35.7615 98.6751 35.7113 98.8273 35.6109C98.9794 35.5105 99.0859 35.3549 99.1569 35.1441L99.1619 35.1491ZM65.5434 35.5205C65.5434 35.6159 65.5536 35.6912 65.5688 35.7313C65.584 35.7765 65.6144 35.8066 65.66 35.8217C65.7057 35.8367 65.7817 35.8468 65.8831 35.8468C65.8933 35.8468 65.8984 35.8568 65.8984 35.8769C65.8984 35.897 65.8984 35.907 65.8831 35.907C65.7767 35.907 65.6955 35.907 65.6347 35.907H65.2696H64.9147C64.8487 35.907 64.7676 35.907 64.656 35.907C64.651 35.907 64.6459 35.897 64.6459 35.8769C64.6459 35.8568 64.6459 35.8468 64.656 35.8468C64.7575 35.8468 64.8335 35.8367 64.8792 35.8217C64.9248 35.8066 64.9603 35.7765 64.9755 35.7313C64.9907 35.6862 65.0009 35.6159 65.0009 35.5205V33.3322C65.0009 33.2368 64.9907 33.1666 64.9755 33.1264C64.9603 33.0812 64.9248 33.0511 64.8792 33.0361C64.8335 33.021 64.7575 33.011 64.656 33.011C64.651 33.011 64.6459 33.0009 64.6459 32.9808C64.6459 32.9608 64.6459 32.9507 64.656 32.9507H64.9147C65.0617 32.9608 65.1783 32.9658 65.2696 32.9658C65.3659 32.9658 65.4927 32.9658 65.6398 32.9558H65.8831C65.8831 32.9558 65.8984 32.9557 65.8984 32.9808C65.8984 33.0059 65.8984 33.011 65.8831 33.011C65.7868 33.011 65.7107 33.021 65.6651 33.0411C65.6144 33.0612 65.584 33.0913 65.5688 33.1364C65.5536 33.1816 65.5434 33.2519 65.5434 33.3472V35.5306V35.5205ZM52.8617 35.1491C52.8617 35.1491 52.8668 35.1391 52.882 35.1391C52.8921 35.1391 52.9022 35.1391 52.9073 35.1441C52.9175 35.1441 52.9175 35.1541 52.9175 35.1541C52.887 35.4001 52.8718 35.6259 52.8718 35.8267C52.8718 35.8518 52.8718 35.8719 52.8566 35.8819C52.8465 35.892 52.8262 35.897 52.8008 35.897H50.6864C50.6864 35.897 50.6712 35.8869 50.6712 35.8669C50.6712 35.8468 50.6712 35.8367 50.6864 35.8367C50.7878 35.8367 50.8638 35.8267 50.9095 35.8116C50.9551 35.7966 50.9855 35.7665 51.0007 35.7213C51.016 35.6761 51.0261 35.6059 51.0261 35.5105V33.3221C51.0261 33.2268 51.021 33.1565 51.0007 33.1164C50.9855 33.0712 50.9551 33.0411 50.9044 33.026C50.8588 33.011 50.7827 33.0009 50.6864 33.0009C50.6762 33.0009 50.6712 32.9909 50.6712 32.9708C50.6712 32.9507 50.6712 32.9407 50.6864 32.9407H52.7146C52.7451 32.9407 52.7603 32.9558 52.7603 32.9859L52.7704 33.6133C52.7704 33.6133 52.7603 33.6233 52.7451 33.6283C52.7298 33.6283 52.7146 33.6283 52.7146 33.6183C52.6639 33.4376 52.5777 33.3021 52.456 33.2117C52.3343 33.1214 52.1771 33.0812 51.9794 33.0812H51.8374C51.7411 33.0812 51.6701 33.1013 51.6295 33.1415C51.5839 33.1816 51.5636 33.2469 51.5636 33.3322V34.2959H51.9591C52.1467 34.2959 52.2836 34.2657 52.385 34.2005C52.4864 34.1353 52.5321 34.0499 52.5321 33.9345C52.5321 33.9244 52.5422 33.9194 52.5574 33.9194C52.5727 33.9194 52.5828 33.9194 52.5828 33.9345V34.3611V34.587C52.5879 34.6924 52.5929 34.7777 52.5929 34.843C52.5929 34.848 52.5828 34.853 52.5625 34.853C52.5422 34.853 52.5321 34.853 52.5321 34.843C52.5321 34.7125 52.4814 34.6121 52.38 34.5368C52.2786 34.4615 52.1366 34.4264 51.949 34.4264H51.5585V35.4954C51.5585 35.5858 51.5737 35.6561 51.6092 35.6962C51.6447 35.7414 51.7005 35.7615 51.7766 35.7615H51.9337C52.1822 35.7615 52.38 35.7113 52.5321 35.6109C52.6791 35.5105 52.7907 35.3549 52.8617 35.1441V35.1491ZM90.3085 35.1491C90.3085 35.1491 90.3136 35.1391 90.3288 35.1391C90.339 35.1391 90.3491 35.1391 90.3542 35.1441C90.3643 35.1441 90.3643 35.1541 90.3643 35.1541C90.3339 35.4001 90.3187 35.6259 90.3187 35.8267C90.3187 35.8518 90.3136 35.8719 90.3035 35.8819C90.2933 35.892 90.273 35.897 90.2477 35.897H88.1332C88.1332 35.897 88.118 35.8869 88.118 35.8669C88.118 35.8468 88.1231 35.8367 88.1332 35.8367C88.2346 35.8367 88.3107 35.8267 88.3563 35.8116C88.402 35.7966 88.4324 35.7665 88.4476 35.7213C88.4628 35.6761 88.473 35.6059 88.473 35.5105V33.3221C88.473 33.2268 88.4628 33.1565 88.4476 33.1164C88.4324 33.0712 88.402 33.0411 88.3513 33.026C88.3056 33.011 88.2296 33.0009 88.1332 33.0009C88.1231 33.0009 88.118 32.9909 88.118 32.9708C88.118 32.9507 88.1231 32.9407 88.1332 32.9407H90.1615C90.1919 32.9407 90.2071 32.9558 90.2071 32.9859L90.2173 33.6133C90.2173 33.6133 90.2071 33.6233 90.1919 33.6283C90.1716 33.6283 90.1666 33.6283 90.1615 33.6183C90.1108 33.4376 90.0246 33.3021 89.9029 33.2117C89.7812 33.1214 89.624 33.0812 89.4263 33.0812H89.2843C89.1879 33.0812 89.1169 33.1013 89.0764 33.1415C89.0307 33.1816 89.0105 33.2469 89.0105 33.3322V34.2959H89.406C89.5885 34.2959 89.7305 34.2657 89.8319 34.2005C89.9282 34.1353 89.979 34.0499 89.979 33.9345C89.979 33.9244 89.9891 33.9194 90.0043 33.9194C90.0195 33.9194 90.0297 33.9194 90.0297 33.9345V34.3611V34.587C90.0347 34.6924 90.0398 34.7777 90.0398 34.843C90.0398 34.848 90.0297 34.853 90.0094 34.853C89.9891 34.853 89.979 34.853 89.979 34.843C89.979 34.7125 89.9282 34.6121 89.8268 34.5368C89.7254 34.4615 89.5834 34.4264 89.3958 34.4264H89.0054V35.4954C89.0054 35.5858 89.0257 35.6561 89.0561 35.6962C89.0916 35.7414 89.1474 35.7615 89.2234 35.7615H89.3806C89.6291 35.7615 89.8268 35.7113 89.979 35.6109C90.1311 35.5105 90.2376 35.3549 90.3085 35.1441V35.1491ZM61.0711 35.8116C61.2739 35.8116 61.4565 35.7615 61.6136 35.6561C61.7708 35.5507 61.8925 35.4001 61.9787 35.1993C62.0649 34.9985 62.1106 34.7576 62.1106 34.4766C62.1106 34.1955 62.07 33.9646 61.9889 33.7438C61.9077 33.5229 61.7861 33.3523 61.6339 33.2268C61.4818 33.1013 61.3043 33.0361 61.1015 33.0361C60.8987 33.0361 60.7668 33.0561 60.6959 33.0913C60.6198 33.1264 60.5843 33.2117 60.5843 33.3322V35.4603C60.5843 35.5858 60.6198 35.6761 60.6857 35.7263C60.7516 35.7765 60.8835 35.8066 61.0711 35.8066V35.8116ZM56.1728 35.8116C56.3757 35.8116 56.5582 35.7615 56.7103 35.6561C56.8675 35.5507 56.9892 35.4001 57.0754 35.1993C57.1616 34.9985 57.2072 34.7576 57.2072 34.4766C57.2072 34.1955 57.1667 33.9646 57.0855 33.7438C57.0044 33.5229 56.8827 33.3523 56.7306 33.2268C56.5785 33.1013 56.401 33.0361 56.1982 33.0361C55.9954 33.0361 55.8635 33.0561 55.7925 33.0913C55.7215 33.1264 55.681 33.2117 55.681 33.3322V35.4603C55.681 35.5858 55.7165 35.6761 55.7824 35.7263C55.8483 35.7765 55.9801 35.8066 56.1678 35.8066L56.1728 35.8116ZM82.018 35.7263C82.2056 35.7263 82.3577 35.6862 82.4744 35.6059C82.4237 35.5707 82.3527 35.5205 82.2715 35.4503C82.1093 35.3198 81.947 35.1742 81.7797 35.0186C81.6174 34.858 81.4704 34.7024 81.3487 34.5468C81.2067 34.6974 81.1357 34.853 81.1357 35.0136C81.1357 35.1341 81.1712 35.2545 81.2422 35.3599C81.3132 35.4703 81.4146 35.5557 81.5515 35.6259C81.6833 35.6912 81.8405 35.7263 82.018 35.7263ZM81.445 33.3121C81.445 33.558 81.5312 33.8241 81.7087 34.1102C81.9369 33.8943 82.0484 33.6584 82.0484 33.4125C82.0484 33.272 82.018 33.1666 81.9521 33.0862C81.8862 33.0059 81.8 32.9658 81.6986 32.9658C81.6073 32.9658 81.5464 32.9959 81.5059 33.0511C81.4653 33.1063 81.4501 33.1917 81.4501 33.3071L81.445 33.3121Z" fill="black"/>
<path d="M49.0942 18.6312C48.5212 18.2296 47.7707 17.8582 46.9746 17.8582C45.7678 17.8582 44.8247 18.7064 44.8247 19.9612C44.8247 20.9249 45.3926 21.6677 46.5842 22.4808C47.7403 23.2689 48.1967 23.7156 48.1967 24.4484C48.1967 25.3367 47.5273 25.9641 46.5538 25.9641C45.8743 25.9641 45.3013 25.653 44.8298 25.2263L44.5864 25.6178C45.205 26.0444 45.9149 26.3657 46.6907 26.3657C48.0293 26.3657 49.2767 25.4522 49.2767 24.0117C49.2767 23.053 48.8356 22.5662 47.3499 21.4971C46.0771 20.5786 45.6867 20.1319 45.6867 19.4493C45.6867 18.6613 46.3104 18.2447 46.9899 18.2447C47.573 18.2447 48.2626 18.5559 48.8559 19.0126L49.0942 18.6312ZM95.4299 24.5036C95.0547 25.141 94.4107 25.8336 93.28 25.8336C91.561 25.8336 90.2984 24.1974 90.2984 21.6677C90.2984 19.5296 91.0996 18.3802 92.7171 18.2196C93.0721 18.2597 94.4919 19.0728 94.9736 19.3941L95.3387 18.335C94.5831 17.9987 93.5031 17.8582 92.9149 17.8582C90.699 17.8582 89.0815 19.8809 89.0815 22.1345C89.0815 24.3881 90.7345 26.3657 92.8388 26.3657C94.1623 26.3657 95.222 25.5927 95.7697 24.7545L95.4299 24.5036ZM55.6455 26.3657C57.76 26.3657 59.4181 24.3781 59.4181 22.1245C59.4181 19.8709 57.76 17.8582 55.6455 17.8582C53.531 17.8582 51.878 19.8659 51.878 22.1245C51.878 24.3831 53.5361 26.3657 55.6455 26.3657ZM137.233 26.3657C139.347 26.3657 141.005 24.3781 141.005 22.1245C141.005 19.8709 139.347 17.8582 137.233 17.8582C135.118 17.8582 133.465 19.8659 133.465 22.1245C133.465 24.3831 135.123 26.3657 137.233 26.3657ZM72.7438 26.3657C74.8582 26.3657 76.5163 24.3781 76.5163 22.1245C76.5163 19.8709 74.8582 17.8582 72.7438 17.8582C70.6293 17.8582 68.9763 19.8659 68.9763 22.1245C68.9763 24.3831 70.6344 26.3657 72.7438 26.3657ZM125.301 26.2H126.503V23.2739L127.791 21.8986L130.199 26.2H131.614L128.643 20.9851L131.411 18.0238H130.793C130.478 18.3953 129.956 19.0176 129.596 19.4041L126.503 22.7117V18.0289H125.301V26.2051V26.2ZM98.7157 26.2H99.9175V22.1998H103.665V26.2H104.866V18.0238H103.665V21.8233H99.9175V18.0238H98.7157V26.2ZM121.082 26.2H121.924V18.0238H121.483C121.488 18.2296 121.544 20.418 121.544 21.7631V24.6792L116.864 18.0238H116.027V26.2H116.463C116.458 26.0545 116.412 23.8059 116.412 22.4608V19.5748L121.087 26.2H121.082ZM79.6804 26.2H82.2361C84.6497 26.2 86.3078 24.368 86.3078 21.999C86.3078 19.63 84.3708 18.0188 81.7138 18.0188H79.6804V26.195V26.2ZM62.5822 26.2H67.232V25.7734C66.8973 25.7834 65.3862 25.8186 64.869 25.8186H63.7839V18.0188H62.5822V26.195V26.2ZM108.416 21.7079V18.0238H113.025V18.4505C112.69 18.4404 111.144 18.4053 110.662 18.4053H109.618V21.8334C109.684 21.8535 109.749 21.8685 109.81 21.8886C110.404 22.0693 111.012 22.2901 111.646 21.984L111.854 21.8936V22.3453L111.828 22.3554C111.088 22.7117 110.378 22.4909 109.689 22.2801C109.663 22.2751 109.638 22.265 109.618 22.26V25.8236H110.713C111.184 25.8236 112.731 25.7885 113.076 25.7784V26.2051H108.416V22.1295C108.264 22.1646 108.117 22.2299 107.97 22.3353L107.848 22.4206V21.9187C108.041 21.8033 108.228 21.738 108.416 21.7079ZM53.1254 21.7581C53.1254 19.6199 54.0229 18.4053 55.392 18.2045C57.0044 18.3802 58.1707 20.1469 58.1707 22.4909C58.1707 24.5638 57.2681 25.8336 55.8483 26.0143C54.1953 25.8437 53.1203 24.087 53.1203 21.7531L53.1254 21.7581ZM134.712 21.7581C134.712 19.6199 135.61 18.4053 136.979 18.2045C138.591 18.3802 139.758 20.1469 139.758 22.4909C139.758 24.5638 138.855 25.8336 137.435 26.0143C135.782 25.8437 134.707 24.087 134.707 21.7531L134.712 21.7581ZM70.2237 21.7581C70.2237 19.6199 71.1212 18.4053 72.4902 18.2045C74.1027 18.3802 75.269 20.1469 75.269 22.4909C75.269 24.5638 74.3664 25.8336 72.9466 26.0143C71.2936 25.8437 70.2186 24.087 70.2186 21.7531L70.2237 21.7581ZM80.8822 25.8236V18.4053H81.7239C83.1488 18.4053 85.0401 19.3389 85.0401 22.255C85.0401 24.2928 84.1376 25.5024 82.5961 25.8236H80.8771H80.8822ZM46.2495 2.03784H47.4513V9.54649C47.4513 10.726 46.7718 11.4488 45.6461 11.4488C45.3115 11.4488 44.9464 11.3835 44.6117 11.2329L44.779 10.8866C44.992 11.0372 45.205 11.1074 45.4585 11.1074C46.2495 11.1074 46.2495 10.3947 46.2495 9.74224V2.03784ZM56.5836 2.03784H56.1424C56.1526 2.37413 56.2033 4.43198 56.2033 5.36052V7.27282C56.2033 9.30557 55.1333 9.97312 53.9468 9.97312C52.5422 9.97312 51.9236 9.06967 51.9236 7.27784V2.03784H50.7219V7.53381C50.7219 9.53646 52.0808 10.3797 53.7237 10.3797C54.9102 10.3797 56.5836 9.91791 56.5836 7.27282V2.03784ZM67.3334 10.214H68.5351V2.03784H67.3334V10.214ZM73.0734 6.61531L74.6706 2.03784H75.4667L78.2657 10.214H76.9981L76.1563 7.72454L76.0346 7.3732C75.3704 7.60408 74.7264 7.40332 74.0976 7.21761C73.8441 7.14232 73.5906 7.06703 73.3421 7.03692L73.2965 7.17243C73.2762 7.23266 73.1038 7.72454 73.1038 7.72454C72.6829 8.96427 72.3685 9.96308 72.3026 10.214H71.8158L72.9263 7.04194C72.7438 7.07205 72.5612 7.14232 72.3787 7.2678L72.2063 7.38826L71.968 7.05197L72.1404 6.93152C72.4547 6.71569 72.764 6.62535 73.0784 6.61531H73.0734ZM59.8339 10.214H64.4837V9.78741C64.149 9.79745 62.6379 9.83259 62.1207 9.83259H61.0356V2.03784H59.8339V10.214ZM73.4841 6.6404C73.7275 6.67554 73.9759 6.74581 74.2244 6.82109C74.772 6.98673 75.3247 7.18749 75.9079 6.98171L74.6503 3.27255L73.4892 6.6404H73.4841Z" fill="black"/>
<path fill-rule="evenodd" clip-rule="evenodd" d="M5.94269 0C5.94269 0 5.94269 0.0150575 5.94269 0.0200766C5.93761 0.0552107 5.93254 0.105402 5.93254 0.160613C5.93254 0.215824 5.93254 0.266015 5.94269 0.301149C5.94269 0.306168 5.94268 0.316207 5.94776 0.321226C7.09373 0.321226 7.94053 0.41157 8.48816 0.582222C9.06622 0.762911 9.46173 1.08414 9.67977 1.54088C9.88766 1.98257 9.99415 2.67521 9.99415 3.61881V17.7276L9.89273 17.8431C2.25124 18.857 -1.35907 25.7733 0.466366 30.5315C0.882161 31.6106 2.43886 33.5631 4.50769 33.6082C8.13321 33.6936 11.8247 31.2241 12.636 26.732C12.925 25.146 13.1481 22.9827 13.1582 20.3978V19.0025L13.3002 19.0376C16.7584 19.8758 21.2054 21.6978 24.4405 24.4633C26.6056 26.3154 28.2283 28.5941 28.6491 31.2794C28.9382 33.1164 28.2333 35.2344 27.0671 36.168C26.0327 36.9962 24.7244 37.3927 23.1677 37.3927C20.9214 37.3927 19.1213 36.5695 17.7624 34.9283C16.4136 33.3021 15.4299 31.3396 14.8011 29.0458C14.7859 28.9806 14.7251 28.9756 14.6338 28.9906C14.5983 28.9956 14.5679 29.0057 14.5425 29.0157C14.5273 29.0258 14.5172 29.0308 14.5121 29.0408C14.5121 29.0509 14.5121 29.0659 14.5121 29.0759V29.086L15.0293 35.5557C15.0597 35.7815 15.1003 35.9572 15.1561 36.0726C15.2068 36.1781 15.3031 36.2684 15.435 36.3487C17.377 37.4479 19.598 37.995 22.0928 37.995C24.0652 37.995 25.7741 37.6537 27.2192 36.9661C28.6593 36.2835 29.7545 35.3549 30.505 34.1704C31.2554 32.9859 31.6307 31.6558 31.6307 30.1701C31.6307 29.2416 31.1997 27.52 29.6075 25.6428L29.5669 25.5977C28.8215 24.7243 27.8277 23.8259 26.5093 22.9526C22.6962 20.4279 18.7005 18.6562 15.2068 18.0238L15.1257 18.0087C14.8721 17.9635 14.6237 17.9234 14.3803 17.8933C14.0101 17.8431 13.64 17.808 13.2647 17.7829H13.1582V3.71417C13.1582 2.77559 13.2394 2.07793 13.3966 1.62119C13.5639 1.14437 13.8986 0.803064 14.3955 0.607317C14.8671 0.421609 15.5972 0.326245 16.5911 0.321226C16.5911 0.316207 16.5911 0.306168 16.5962 0.301149C16.6012 0.266015 16.6063 0.215824 16.6063 0.160613C16.6063 0.105402 16.6063 0.0552107 16.5962 0.0200766C16.5962 0.0150575 16.5962 0.00501915 16.5911 0L14.5324 0.0451724C13.3509 0.105402 12.3368 0.135517 11.4951 0.135517C10.7801 0.135517 9.76597 0.105402 8.46281 0.0451724L5.93761 0L5.94269 0ZM9.98401 22.8723C9.96879 25.2614 9.86231 27.3142 9.30961 28.8451C8.50844 31.0535 6.26214 32.3836 4.30993 32.3836C2.99156 32.3836 1.80502 31.7763 1.27767 30.4311C0.283822 27.9015 0.735112 24.7896 2.69746 22.3804C4.87785 19.6952 9.03072 18.7465 9.86231 18.6763L9.98908 18.6662V22.8773L9.98401 22.8723ZM29.5568 9.37076C27.7973 8.66808 25.9667 8.31674 24.0551 8.31674C22.544 8.31674 21.1141 8.58275 19.7602 9.11478C18.4115 9.64681 17.3263 10.4499 16.4998 11.524C15.6733 12.5981 15.2626 13.9031 15.2626 15.449C15.2626 16.0362 15.3234 16.5883 15.44 17.1103C16.9055 17.3813 18.4571 17.8381 20.0442 18.4655C19.6487 18.0589 19.2887 17.6122 18.9692 17.1304C18.3658 16.2219 18.0616 15.1679 18.0616 13.9733C18.0616 12.4977 18.4977 11.273 19.3749 10.2943C20.2521 9.32057 21.5299 8.82367 23.2134 8.82367C25.3076 8.82367 26.9048 9.5665 28.0153 11.0371C29.1156 12.4977 29.8204 14.0486 30.1348 15.6949C30.15 15.7601 30.2109 15.7652 30.3022 15.7451C30.3985 15.725 30.4644 15.6999 30.4644 15.6296L30.1855 10.0935C30.1855 9.78735 29.9675 9.55145 29.5568 9.36072V9.37076Z" fill="black"/>
</g>
<defs>
<clipPath id="clip0_194_40789">
<rect width="141" height="38" fill="black"/>
</clipPath>
</defs>
</svg>
