<svg width="38" height="64" viewBox="0 0 38 64" fill="none" xmlns="http://www.w3.org/2000/svg">
<path d="M18.8545 0C29.2669 0.000263881 37.7087 8.44113 37.709 18.8535V44.915C37.7088 55.3275 29.267 63.7683 18.8545 63.7686C8.44203 63.7683 0.00015256 55.3275 0 44.915V18.8535C0.000262863 8.44112 8.4421 0.000261816 18.8545 0ZM18.8545 2C9.54667 2.00026 2.00124 9.54569 2.00098 18.8535V44.915C2.00113 54.223 9.5466 61.7683 18.8545 61.7686C28.1624 61.7683 35.7088 54.223 35.709 44.915V18.8535C35.7087 9.54569 28.1623 2.00026 18.8545 2ZM18.9277 13.8643C19.4799 13.8644 19.9277 14.3121 19.9277 14.8643V46.418L26.3525 39.9932C26.743 39.6027 27.3761 39.6027 27.7666 39.9932C28.1568 40.3837 28.157 41.0168 27.7666 41.4072L19.5615 49.6133C19.374 49.8006 19.1196 49.9062 18.8545 49.9062C18.5894 49.9062 18.335 49.8006 18.1475 49.6133L9.94238 41.4072C9.55199 41.0168 9.55215 40.3837 9.94238 39.9932C10.3329 39.6027 10.9659 39.6027 11.3564 39.9932L17.9277 46.5645V14.8643C17.9277 14.312 18.3755 13.8643 18.9277 13.8643Z" fill="white"/>
</svg>
