<svg width="32" height="32" viewBox="0 0 32 32" fill="none" xmlns="http://www.w3.org/2000/svg">
<path d="M28.4722 4.04199C28.7056 4.00106 29.1106 3.95438 29.4664 4.09082L29.4654 4.0918C29.5839 4.13714 29.7488 4.20845 29.898 4.3584C30.0454 4.50671 30.1354 4.6877 30.2007 4.87988H30.2017C30.2535 5.03253 30.2757 5.24383 30.2828 5.4375L30.2857 5.62207C30.2837 5.79616 30.2596 6.01386 30.2486 6.19336C30.2087 6.84346 29.8953 8.4553 29.4683 10.4404C29.0361 12.4502 28.4734 14.9034 27.9166 17.2793C27.3596 19.6558 26.8072 21.9577 26.3941 23.665C26.1876 24.5186 26.0162 25.224 25.8961 25.7158C25.836 25.9616 25.7885 26.1541 25.7564 26.2852C25.7404 26.3505 25.7286 26.4007 25.7203 26.4346C25.7162 26.4512 25.7126 26.4641 25.7105 26.4727C25.7095 26.4768 25.7081 26.4803 25.7076 26.4824V26.4863L25.7066 26.4893L25.7056 26.4912V26.4932C25.7052 26.4948 25.7042 26.4969 25.7037 26.499C25.7025 26.5035 25.7006 26.5092 25.6988 26.5156C25.6951 26.5286 25.6905 26.5461 25.6841 26.5664C25.6714 26.6067 25.6529 26.6609 25.6275 26.7246C25.5771 26.8508 25.4963 27.0227 25.3746 27.1992C25.1301 27.5534 24.6839 27.9711 23.9732 27.998C23.4994 28.0159 22.938 27.905 22.3218 27.3691C20.9649 26.19 17.0654 23.4779 14.5992 21.7891L12.7584 20.5361C12.4946 20.3581 12.4268 20.1083 12.4019 19.9824C12.35 19.7196 12.4651 19.5062 12.5015 19.4414C12.5285 19.3934 12.5558 19.354 12.5757 19.3271C12.5858 19.3135 12.5948 19.302 12.6021 19.293C12.6058 19.2884 12.609 19.2837 12.6119 19.2803L12.6187 19.2734V19.2725H12.6197L12.6422 19.2451L12.6685 19.2217L13.0504 19.6465C12.6988 19.255 12.6716 19.2241 12.6695 19.2217L12.6705 19.2197C12.6718 19.2185 12.6747 19.2172 12.6773 19.2148C12.6826 19.2101 12.6904 19.2027 12.7007 19.1934C12.7216 19.1746 12.753 19.1468 12.7935 19.1104C12.8746 19.0373 12.9935 18.9298 13.1451 18.793C13.4484 18.5191 13.8824 18.1267 14.4039 17.6523C15.4471 16.7034 16.8404 15.427 18.2427 14.1191C19.5529 12.8972 20.866 11.6489 21.9088 10.6152C20.6192 11.4125 18.9978 12.4302 17.356 13.4658C13.8976 15.6474 10.3549 17.9074 9.64996 18.3574C9.52134 18.4395 9.38937 18.4603 9.33063 18.4678C9.25752 18.4771 9.18906 18.4779 9.13922 18.4766C9.08716 18.4751 9.04082 18.4711 9.00836 18.4678C8.99182 18.4661 8.9778 18.4642 8.96735 18.4629C8.96209 18.4622 8.95718 18.4614 8.95367 18.4609H8.94781L8.94684 18.46L9.02887 17.8945L8.94586 18.46L8.89703 18.4531L8.85016 18.4375L2.65582 16.3984L2.63629 16.3926L2.61774 16.3848V16.3838H2.61578L2.60797 16.3799C2.60397 16.3782 2.59873 16.3764 2.59332 16.374C2.58248 16.3692 2.56919 16.3622 2.55328 16.3545C2.52121 16.3388 2.47864 16.317 2.43024 16.2881C2.33552 16.2315 2.20567 16.142 2.08258 16.0137C1.82031 15.7402 1.58636 15.275 1.79254 14.6777C1.90233 14.3599 2.12707 14.1523 2.44781 13.9268C2.58155 13.8327 2.80093 13.7217 3.04645 13.6074C3.30723 13.4861 3.64342 13.3396 4.04059 13.1729C4.83582 12.8389 5.89308 12.4171 7.11774 11.9395C9.56792 10.9839 12.7039 9.80083 15.7945 8.64941C18.8856 7.4978 21.9335 6.37632 24.2086 5.54297C25.3461 5.12627 26.2907 4.78159 26.9507 4.54102C27.2807 4.42075 27.5399 4.32687 27.7164 4.2627C27.8045 4.23064 27.872 4.206 27.9175 4.18945C27.9403 4.18118 27.9577 4.17511 27.9693 4.1709C27.9749 4.16887 27.9791 4.16708 27.982 4.16602C27.9835 4.16548 27.9852 4.16531 27.9859 4.16504L27.9869 4.16406L27.9976 4.16016H27.9996C28.0004 4.15988 28.0014 4.15858 28.0025 4.1582L28.0416 4.14648C28.0661 4.13884 28.1006 4.12863 28.1422 4.11719C28.2246 4.09446 28.3402 4.06516 28.4722 4.04199Z" stroke="black" stroke-opacity="0.5" stroke-width="1.14286"/>
</svg>
